<svg width="297" height="36" viewBox="0 0 297 36" fill="none" xmlns="http://www.w3.org/2000/svg">
<path d="M0.456 35V1.256H6.984V35H0.456ZM21.624 35V1.256H28.152V35H21.624ZM4.584 20.456V14.696H23.448V20.456H4.584ZM44.0738 35.48C41.9618 35.48 40.0578 34.952 38.3618 33.896C36.6658 32.84 35.3378 31.4 34.3778 29.576C33.4178 27.752 32.9378 25.704 32.9378 23.432C32.9378 21.128 33.4178 19.064 34.3778 17.24C35.3378 15.416 36.6658 13.976 38.3618 12.92C40.0578 11.864 41.9618 11.336 44.0738 11.336C45.7378 11.336 47.2258 11.672 48.5378 12.344C49.8498 13.016 50.8898 13.96 51.6578 15.176C52.4578 16.36 52.8898 17.704 52.9538 19.208V27.56C52.8898 29.096 52.4578 30.456 51.6578 31.64C50.8898 32.824 49.8498 33.768 48.5378 34.472C47.2258 35.144 45.7378 35.48 44.0738 35.48ZM45.2258 29.672C46.9858 29.672 48.4098 29.096 49.4978 27.944C50.5858 26.76 51.1298 25.24 51.1298 23.384C51.1298 22.168 50.8738 21.096 50.3618 20.168C49.8818 19.208 49.1938 18.472 48.2978 17.96C47.4338 17.416 46.4098 17.144 45.2258 17.144C44.0738 17.144 43.0498 17.416 42.1538 17.96C41.2898 18.472 40.6018 19.208 40.0898 20.168C39.6098 21.096 39.3698 22.168 39.3698 23.384C39.3698 24.632 39.6098 25.736 40.0898 26.696C40.6018 27.624 41.2898 28.36 42.1538 28.904C43.0498 29.416 44.0738 29.672 45.2258 29.672ZM50.7938 35V28.76L51.8018 23.096L50.7938 17.528V11.816H57.0338V35H50.7938ZM62.5965 35V11.816H68.8845V35H62.5965ZM68.8845 22.184L66.4365 20.552C66.7245 17.704 67.5565 15.464 68.9325 13.832C70.3085 12.168 72.2925 11.336 74.8845 11.336C76.0045 11.336 77.0125 11.528 77.9085 11.912C78.8045 12.264 79.6205 12.856 80.3565 13.688L76.4205 18.2C76.0685 17.816 75.6365 17.528 75.1245 17.336C74.6445 17.144 74.0845 17.048 73.4445 17.048C72.1005 17.048 70.9965 17.48 70.1325 18.344C69.3005 19.176 68.8845 20.456 68.8845 22.184ZM82.5653 35V11.816H88.9013V35H82.5653ZM85.7333 8.072C84.7093 8.072 83.8613 7.736 83.1893 7.064C82.5173 6.36 82.1813 5.496 82.1813 4.472C82.1813 3.48 82.5173 2.632 83.1893 1.928C83.8613 1.224 84.7093 0.871999 85.7333 0.871999C86.7893 0.871999 87.6373 1.224 88.2773 1.928C88.9493 2.632 89.2853 3.48 89.2853 4.472C89.2853 5.496 88.9493 6.36 88.2773 7.064C87.6373 7.736 86.7893 8.072 85.7333 8.072Z" fill="#0B0712"/>
<path d="M115.544 35L100.904 17.384L115.16 1.256H123.32L107.432 18.776V15.752L123.848 35H115.544ZM95.1435 35V1.256H101.672V35H95.1435ZM135.058 35.48C132.946 35.48 131.042 34.952 129.346 33.896C127.65 32.84 126.322 31.4 125.362 29.576C124.402 27.752 123.922 25.704 123.922 23.432C123.922 21.128 124.402 19.064 125.362 17.24C126.322 15.416 127.65 13.976 129.346 12.92C131.042 11.864 132.946 11.336 135.058 11.336C136.722 11.336 138.21 11.672 139.522 12.344C140.834 13.016 141.874 13.96 142.642 15.176C143.442 16.36 143.874 17.704 143.938 19.208V27.56C143.874 29.096 143.442 30.456 142.642 31.64C141.874 32.824 140.834 33.768 139.522 34.472C138.21 35.144 136.722 35.48 135.058 35.48ZM136.21 29.672C137.97 29.672 139.394 29.096 140.482 27.944C141.57 26.76 142.114 25.24 142.114 23.384C142.114 22.168 141.858 21.096 141.346 20.168C140.866 19.208 140.178 18.472 139.282 17.96C138.418 17.416 137.394 17.144 136.21 17.144C135.058 17.144 134.034 17.416 133.138 17.96C132.274 18.472 131.586 19.208 131.074 20.168C130.594 21.096 130.354 22.168 130.354 23.384C130.354 24.632 130.594 25.736 131.074 26.696C131.586 27.624 132.274 28.36 133.138 28.904C134.034 29.416 135.058 29.672 136.21 29.672ZM141.778 35V28.76L142.786 23.096L141.778 17.528V11.816H148.018V35H141.778ZM153.581 35V11.816H159.869V35H153.581ZM159.869 22.184L157.421 20.552C157.709 17.704 158.541 15.464 159.917 13.832C161.293 12.168 163.277 11.336 165.869 11.336C166.989 11.336 167.997 11.528 168.893 11.912C169.789 12.264 170.605 12.856 171.341 13.688L167.405 18.2C167.053 17.816 166.621 17.528 166.109 17.336C165.629 17.144 165.069 17.048 164.429 17.048C163.085 17.048 161.981 17.48 161.117 18.344C160.285 19.176 159.869 20.456 159.869 22.184ZM173.456 35V11.816H179.744V35H173.456ZM188.576 35V21.32C188.576 19.976 188.144 18.936 187.28 18.2C186.448 17.432 185.408 17.048 184.16 17.048C183.328 17.048 182.576 17.224 181.904 17.576C181.232 17.896 180.704 18.376 180.32 19.016C179.936 19.656 179.744 20.424 179.744 21.32L177.296 20.12C177.296 18.328 177.68 16.776 178.448 15.464C179.248 14.152 180.32 13.144 181.664 12.44C183.008 11.704 184.528 11.336 186.224 11.336C187.824 11.336 189.28 11.704 190.592 12.44C191.904 13.144 192.944 14.152 193.712 15.464C194.48 16.744 194.864 18.296 194.864 20.12V35H188.576ZM203.696 35V21.32C203.696 19.976 203.264 18.936 202.4 18.2C201.568 17.432 200.528 17.048 199.28 17.048C198.48 17.048 197.728 17.224 197.024 17.576C196.352 17.896 195.824 18.376 195.44 19.016C195.056 19.656 194.864 20.424 194.864 21.32L191.264 20.456C191.392 18.6 191.888 17 192.752 15.656C193.616 14.28 194.752 13.224 196.16 12.488C197.568 11.72 199.136 11.336 200.864 11.336C202.592 11.336 204.144 11.704 205.52 12.44C206.896 13.144 207.984 14.168 208.784 15.512C209.584 16.856 209.984 18.456 209.984 20.312V35H203.696ZM229.865 35L220.889 23.048L229.817 11.816H237.065L226.601 24.488L226.841 21.416L237.545 35H229.865ZM215.081 35V0.295998H221.369V35H215.081ZM249.058 35.48C246.946 35.48 245.042 34.952 243.346 33.896C241.65 32.84 240.322 31.4 239.362 29.576C238.402 27.752 237.922 25.704 237.922 23.432C237.922 21.128 238.402 19.064 239.362 17.24C240.322 15.416 241.65 13.976 243.346 12.92C245.042 11.864 246.946 11.336 249.058 11.336C250.722 11.336 252.21 11.672 253.522 12.344C254.834 13.016 255.874 13.96 256.642 15.176C257.442 16.36 257.874 17.704 257.938 19.208V27.56C257.874 29.096 257.442 30.456 256.642 31.64C255.874 32.824 254.834 33.768 253.522 34.472C252.21 35.144 250.722 35.48 249.058 35.48ZM250.21 29.672C251.97 29.672 253.394 29.096 254.482 27.944C255.57 26.76 256.114 25.24 256.114 23.384C256.114 22.168 255.858 21.096 255.346 20.168C254.866 19.208 254.178 18.472 253.282 17.96C252.418 17.416 251.394 17.144 250.21 17.144C249.058 17.144 248.034 17.416 247.138 17.96C246.274 18.472 245.586 19.208 245.074 20.168C244.594 21.096 244.354 22.168 244.354 23.384C244.354 24.632 244.594 25.736 245.074 26.696C245.586 27.624 246.274 28.36 247.138 28.904C248.034 29.416 249.058 29.672 250.21 29.672ZM255.778 35V28.76L256.786 23.096L255.778 17.528V11.816H262.018V35H255.778ZM267.581 35V11.816H273.869V35H267.581ZM273.869 22.184L271.421 20.552C271.709 17.704 272.541 15.464 273.917 13.832C275.293 12.168 277.277 11.336 279.869 11.336C280.989 11.336 281.997 11.528 282.893 11.912C283.789 12.264 284.605 12.856 285.341 13.688L281.405 18.2C281.053 17.816 280.621 17.528 280.109 17.336C279.629 17.144 279.069 17.048 278.429 17.048C277.085 17.048 275.981 17.48 275.117 18.344C274.285 19.176 273.869 20.456 273.869 22.184Z" fill="#969696"/>
<path d="M292.713 35.48C291.561 35.48 290.617 35.096 289.881 34.328C289.145 33.56 288.777 32.616 288.777 31.496C288.777 30.376 289.145 29.432 289.881 28.664C290.617 27.896 291.561 27.512 292.713 27.512C293.833 27.512 294.761 27.896 295.497 28.664C296.233 29.432 296.601 30.376 296.601 31.496C296.601 32.616 296.233 33.56 295.497 34.328C294.761 35.096 293.833 35.48 292.713 35.48Z" fill="#5821b8"/>
</svg>
