<svg width="354" height="39" viewBox="0 0 354 39" fill="none" xmlns="http://www.w3.org/2000/svg">
<path d="M22.24 31.536L0.448 22.128V17.712L22.24 8.304V14.304L5.344 21.12V18.72L22.24 25.536V31.536ZM28.081 36V2.256H34.609V36H28.081ZM49.249 36V2.256H55.777V36H49.249ZM32.209 21.456V15.696H51.073V21.456H32.209ZM71.6988 36.48C69.5868 36.48 67.6828 35.952 65.9868 34.896C64.2908 33.84 62.9628 32.4 62.0028 30.576C61.0428 28.752 60.5628 26.704 60.5628 24.432C60.5628 22.128 61.0428 20.064 62.0028 18.24C62.9628 16.416 64.2908 14.976 65.9868 13.92C67.6828 12.864 69.5868 12.336 71.6988 12.336C73.3628 12.336 74.8508 12.672 76.1628 13.344C77.4748 14.016 78.5148 14.96 79.2828 16.176C80.0828 17.36 80.5148 18.704 80.5788 20.208V28.56C80.5148 30.096 80.0828 31.456 79.2828 32.64C78.5148 33.824 77.4748 34.768 76.1628 35.472C74.8508 36.144 73.3628 36.48 71.6988 36.48ZM72.8508 30.672C74.6108 30.672 76.0348 30.096 77.1228 28.944C78.2108 27.76 78.7548 26.24 78.7548 24.384C78.7548 23.168 78.4988 22.096 77.9868 21.168C77.5068 20.208 76.8188 19.472 75.9228 18.96C75.0588 18.416 74.0348 18.144 72.8508 18.144C71.6988 18.144 70.6748 18.416 69.7788 18.96C68.9148 19.472 68.2268 20.208 67.7148 21.168C67.2348 22.096 66.9948 23.168 66.9948 24.384C66.9948 25.632 67.2348 26.736 67.7148 27.696C68.2268 28.624 68.9148 29.36 69.7788 29.904C70.6748 30.416 71.6988 30.672 72.8508 30.672ZM78.4188 36V29.76L79.4268 24.096L78.4188 18.528V12.816H84.6588V36H78.4188ZM90.2215 36V12.816H96.5095V36H90.2215ZM96.5095 23.184L94.0615 21.552C94.3495 18.704 95.1815 16.464 96.5575 14.832C97.9335 13.168 99.9175 12.336 102.51 12.336C103.63 12.336 104.638 12.528 105.534 12.912C106.43 13.264 107.246 13.856 107.982 14.688L104.046 19.2C103.694 18.816 103.262 18.528 102.75 18.336C102.27 18.144 101.71 18.048 101.07 18.048C99.7255 18.048 98.6215 18.48 97.7575 19.344C96.9255 20.176 96.5095 21.456 96.5095 23.184ZM110.19 36V12.816H116.526V36H110.19ZM113.358 9.072C112.334 9.072 111.486 8.736 110.814 8.064C110.142 7.36 109.806 6.496 109.806 5.472C109.806 4.48 110.142 3.632 110.814 2.928C111.486 2.224 112.334 1.872 113.358 1.872C114.414 1.872 115.262 2.224 115.902 2.928C116.574 3.632 116.91 4.48 116.91 5.472C116.91 6.496 116.574 7.36 115.902 8.064C115.262 8.736 114.414 9.072 113.358 9.072ZM143.169 36L128.529 18.384L142.785 2.256H150.945L135.057 19.776V16.752L151.473 36H143.169ZM122.769 36V2.256H129.297V36H122.769ZM162.683 36.48C160.571 36.48 158.667 35.952 156.971 34.896C155.275 33.84 153.947 32.4 152.987 30.576C152.027 28.752 151.547 26.704 151.547 24.432C151.547 22.128 152.027 20.064 152.987 18.24C153.947 16.416 155.275 14.976 156.971 13.92C158.667 12.864 160.571 12.336 162.683 12.336C164.347 12.336 165.835 12.672 167.147 13.344C168.459 14.016 169.499 14.96 170.267 16.176C171.067 17.36 171.499 18.704 171.563 20.208V28.56C171.499 30.096 171.067 31.456 170.267 32.64C169.499 33.824 168.459 34.768 167.147 35.472C165.835 36.144 164.347 36.48 162.683 36.48ZM163.835 30.672C165.595 30.672 167.019 30.096 168.107 28.944C169.195 27.76 169.739 26.24 169.739 24.384C169.739 23.168 169.483 22.096 168.971 21.168C168.491 20.208 167.803 19.472 166.907 18.96C166.043 18.416 165.019 18.144 163.835 18.144C162.683 18.144 161.659 18.416 160.763 18.96C159.899 19.472 159.211 20.208 158.699 21.168C158.219 22.096 157.979 23.168 157.979 24.384C157.979 25.632 158.219 26.736 158.699 27.696C159.211 28.624 159.899 29.36 160.763 29.904C161.659 30.416 162.683 30.672 163.835 30.672ZM169.403 36V29.76L170.411 24.096L169.403 18.528V12.816H175.643V36H169.403ZM181.206 36V12.816H187.494V36H181.206ZM187.494 23.184L185.046 21.552C185.334 18.704 186.166 16.464 187.542 14.832C188.918 13.168 190.902 12.336 193.494 12.336C194.614 12.336 195.622 12.528 196.518 12.912C197.414 13.264 198.23 13.856 198.966 14.688L195.03 19.2C194.678 18.816 194.246 18.528 193.734 18.336C193.254 18.144 192.694 18.048 192.054 18.048C190.71 18.048 189.606 18.48 188.742 19.344C187.91 20.176 187.494 21.456 187.494 23.184ZM201.081 36V12.816H207.369V36H201.081ZM216.201 36V22.32C216.201 20.976 215.769 19.936 214.905 19.2C214.073 18.432 213.033 18.048 211.785 18.048C210.953 18.048 210.201 18.224 209.529 18.576C208.857 18.896 208.329 19.376 207.945 20.016C207.561 20.656 207.369 21.424 207.369 22.32L204.921 21.12C204.921 19.328 205.305 17.776 206.073 16.464C206.873 15.152 207.945 14.144 209.289 13.44C210.633 12.704 212.153 12.336 213.849 12.336C215.449 12.336 216.905 12.704 218.217 13.44C219.529 14.144 220.569 15.152 221.337 16.464C222.105 17.744 222.489 19.296 222.489 21.12V36H216.201ZM231.321 36V22.32C231.321 20.976 230.889 19.936 230.025 19.2C229.193 18.432 228.153 18.048 226.905 18.048C226.105 18.048 225.353 18.224 224.649 18.576C223.977 18.896 223.449 19.376 223.065 20.016C222.681 20.656 222.489 21.424 222.489 22.32L218.889 21.456C219.017 19.6 219.513 18 220.377 16.656C221.241 15.28 222.377 14.224 223.785 13.488C225.193 12.72 226.761 12.336 228.489 12.336C230.217 12.336 231.769 12.704 233.145 13.44C234.521 14.144 235.609 15.168 236.409 16.512C237.209 17.856 237.609 19.456 237.609 21.312V36H231.321ZM257.49 36L248.514 24.048L257.442 12.816H264.69L254.226 25.488L254.466 22.416L265.17 36H257.49ZM242.706 36V1.296H248.994V36H242.706ZM276.683 36.48C274.571 36.48 272.667 35.952 270.971 34.896C269.275 33.84 267.947 32.4 266.987 30.576C266.027 28.752 265.547 26.704 265.547 24.432C265.547 22.128 266.027 20.064 266.987 18.24C267.947 16.416 269.275 14.976 270.971 13.92C272.667 12.864 274.571 12.336 276.683 12.336C278.347 12.336 279.835 12.672 281.147 13.344C282.459 14.016 283.499 14.96 284.267 16.176C285.067 17.36 285.499 18.704 285.563 20.208V28.56C285.499 30.096 285.067 31.456 284.267 32.64C283.499 33.824 282.459 34.768 281.147 35.472C279.835 36.144 278.347 36.48 276.683 36.48ZM277.835 30.672C279.595 30.672 281.019 30.096 282.107 28.944C283.195 27.76 283.739 26.24 283.739 24.384C283.739 23.168 283.483 22.096 282.971 21.168C282.491 20.208 281.803 19.472 280.907 18.96C280.043 18.416 279.019 18.144 277.835 18.144C276.683 18.144 275.659 18.416 274.763 18.96C273.899 19.472 273.211 20.208 272.699 21.168C272.219 22.096 271.979 23.168 271.979 24.384C271.979 25.632 272.219 26.736 272.699 27.696C273.211 28.624 273.899 29.36 274.763 29.904C275.659 30.416 276.683 30.672 277.835 30.672ZM283.403 36V29.76L284.411 24.096L283.403 18.528V12.816H289.643V36H283.403ZM295.206 36V12.816H301.494V36H295.206ZM301.494 23.184L299.046 21.552C299.334 18.704 300.166 16.464 301.542 14.832C302.918 13.168 304.902 12.336 307.494 12.336C308.614 12.336 309.622 12.528 310.518 12.912C311.414 13.264 312.23 13.856 312.966 14.688L309.03 19.2C308.678 18.816 308.246 18.528 307.734 18.336C307.254 18.144 306.694 18.048 306.054 18.048C304.71 18.048 303.606 18.48 302.742 19.344C301.91 20.176 301.494 21.456 301.494 23.184ZM310.569 38.256L323.193 0.0959988H328.857L316.233 38.256H310.569ZM331.573 14.304V8.304L353.365 17.712V22.128L331.573 31.536V25.536L348.421 18.72V21.12L331.573 14.304Z" fill="#7348BD"/>
</svg>
